<!-- Your SVG code -->
<svg id="Layer_1" style="enable-background:new 0 0 30 30;" fill="none" version="1.1" viewBox="0 0 30 30" xml:space="preserve" xmlns="http://www.w3.org/2000/svg" xmlns:xlink="http://www.w3.org/1999/xlink">
  <path d="M27,26h-6V5c0-0.552,0.448-1,1-1h4c0-0.552,0.448-1,1-1s1,0.448,1,1V26z" />

  <!-- Additional paths can also use the same CSS variable for stroke color -->
  <g>
    <path d="M18,26h-6V13c0-0.552,0.448-1,1-1h4c0-0.552,0.448-1,1-1s1,0.448,1,1V26z" />
  </g>

  <path d="M9,26H3V9c0-0.552,0.448-1,1-1h4c0-0.552,0.448-1,1-1s1,0.448,1,1V26z" />
</svg>
